<?xml version="1.0" encoding="utf-8"?>
<!-- Generator: Adobe Illustrator 21.1.0, SVG Export Plug-In . SVG Version: 6.00 Build 0)  -->
<svg version="1.1" id="Capa_1" xmlns="http://www.w3.org/2000/svg" xmlns:xlink="http://www.w3.org/1999/xlink" x="0px" y="0px"
	 viewBox="0 0 100 100" style="enable-background:new 0 0 100 100;" xml:space="preserve">
<g>
	<g>
		<path d="M5,15.3V67c0,5.7,4.9,10.3,11,10.3h33.8l22.7,17.2c0.5,0.3,1.1,0.5,1.7,0.5c0.4,0,0.7,0,1.1-0.2c0.9-0.4,1.5-1.3,1.5-2.2
			V77.3H84c6.1,0,11-4.6,11-10.3V15.3C95,9.6,90.1,5,84,5H16C9.9,5,5,9.6,5,15.3z M10,66.9V15.5c0-3,2.6-5.4,5.8-5.4H84
			c3.2,0,5.8,2.4,5.8,5.4v51.4c0,3-2.6,5.4-5.8,5.4h-9.8c-1.4,0-2.6,1.1-2.6,2.4v12.6L52.5,72.8c-0.5-0.3-1.1-0.5-1.7-0.5H15.9
			C12.7,72.3,10.1,69.9,10,66.9L10,66.9z"/>
	</g>
</g>
</svg>
