<?xml version="1.0" encoding="utf-8"?>
<!-- Generator: Adobe Illustrator 21.1.0, SVG Export Plug-In . SVG Version: 6.00 Build 0)  -->
<svg version="1.1" id="Capa_1" xmlns="http://www.w3.org/2000/svg" xmlns:xlink="http://www.w3.org/1999/xlink" x="0px" y="0px"
	 viewBox="0 0 100 100" style="enable-background:new 0 0 100 100;" xml:space="preserve">
<g>
	<g>
		<path d="M52.4,96.9C24.6,98.3,1.7,75.4,3.1,47.6C4.3,23.7,23.7,4.3,47.6,3.1c27.9-1.4,50.8,21.5,49.4,49.4
			C95.7,76.3,76.3,95.7,52.4,96.9z M52.2,7.6C27,6.3,6.3,27,7.6,52.2c1.1,21.6,18.6,39.1,40.2,40.2C73,93.7,93.7,73,92.4,47.8
			C91.4,26.2,73.8,8.6,52.2,7.6z"/>
	</g>
	<g>
		<g>
			<g>
				<path d="M49.4,71.2c-1-0.3-1.6-1.2-1.6-2.2V43.4c0-1,0.6-2,1.6-2.2c1.5-0.4,2.8,0.7,2.8,2.2V69C52.2,70.4,50.9,71.6,49.4,71.2z"
					/>
			</g>
		</g>
		<g>
			<circle cx="50" cy="32.1" r="2.2"/>
			<path d="M50.2,35.5c-2.1,0.1-3.7-1.5-3.5-3.5c0.1-1.7,1.5-3.1,3.2-3.2c2.1-0.1,3.7,1.5,3.5,3.5C53.3,34,51.9,35.4,50.2,35.5z
				 M50,31c-0.7,0-1.1,0.4-1.1,1.1s0.4,1.1,1.1,1.1s1.1-0.4,1.1-1.1C51.1,31.4,50.7,31,50,31z"/>
		</g>
	</g>
</g>
</svg>
