<?xml version="1.0" encoding="utf-8"?>
<!-- Generator: Adobe Illustrator 21.1.0, SVG Export Plug-In . SVG Version: 6.00 Build 0)  -->
<svg version="1.1" id="Capa_1" xmlns="http://www.w3.org/2000/svg" xmlns:xlink="http://www.w3.org/1999/xlink" x="0px" y="0px"
	 viewBox="0 0 458 120" style="enable-background:new 0 0 458 120;" xml:space="preserve">
<style type="text/css">
	.st0{fill:#D4A135;}
	.st1{fill:#FFFFFF;}
</style>
<g>
	<path class="st0" d="M166.7,113.8H5.4v-59c0-27.1,21.9-49,49-49h161.2v59C215.7,91.8,193.7,113.8,166.7,113.8z"/>
	<g>
		<path class="st1" d="M62.5,42.5c-2.6-1.3-5.3-2-8-2c-3.2,0-6.1,0.8-8.8,2.4c-2.7,1.6-4.8,3.7-6.3,6.4c-1.5,2.7-2.3,5.7-2.3,9.1
			c0,3.3,0.8,6.3,2.3,9.1c1.5,2.7,3.6,4.9,6.3,6.5c2.7,1.6,5.6,2.4,8.8,2.4c2.6,0,5.2-0.6,7.8-1.8c2.6-1.2,5-2.9,7.1-4.9l7.6,8.2
			c-3,3.2-6.6,5.7-10.7,7.5c-4.1,1.8-8.2,2.8-12.4,2.8c-5.6,0-10.7-1.3-15.3-3.9c-4.6-2.6-8.2-6.1-10.8-10.6
			c-2.6-4.5-3.9-9.5-3.9-15.1c0-5.5,1.3-10.5,4-14.9c2.7-4.5,6.3-8,11-10.5c4.6-2.6,9.8-3.8,15.5-3.8c4.1,0,8.2,0.9,12.2,2.6
			c4,1.7,7.4,4,10.3,7L69.4,48C67.4,45.7,65.1,43.9,62.5,42.5z"/>
		<path class="st1" d="M129.2,41.8c-3.3-1.1-6.1-1.6-8.4-1.6c-2.2,0-4,0.4-5.3,1.2c-1.3,0.8-2,2-2,3.6c0,2,0.9,3.5,2.8,4.6
			c1.9,1.1,4.8,2.2,8.7,3.3c3.9,1.1,7.1,2.3,9.7,3.4c2.5,1.1,4.7,2.9,6.5,5.1c1.8,2.3,2.7,5.3,2.7,9.1c0,3.6-1,6.8-2.9,9.4
			c-1.9,2.6-4.6,4.6-8,6c-3.4,1.4-7.2,2-11.5,2c-4.6,0-9.2-0.8-13.6-2.4c-4.5-1.6-8.3-3.9-11.6-6.7l5.1-10.5c2.9,2.6,6.2,4.7,10,6.3
			c3.8,1.6,7.2,2.4,10.3,2.4c2.7,0,4.7-0.5,6.2-1.5c1.5-1,2.2-2.4,2.2-4.2c0-1.5-0.5-2.7-1.5-3.6c-1-1-2.3-1.7-3.8-2.3
			c-1.5-0.6-3.7-1.3-6.4-2c-3.9-1.1-7.1-2.2-9.6-3.3c-2.5-1.1-4.6-2.7-6.4-5c-1.8-2.2-2.7-5.2-2.7-8.9c0-3.4,0.9-6.4,2.8-9
			c1.8-2.6,4.4-4.6,7.7-6c3.3-1.4,7.2-2.1,11.6-2.1c3.9,0,7.8,0.6,11.6,1.7c3.8,1.1,7.2,2.7,10.1,4.6l-5,10.7
			C135.6,44.3,132.5,42.9,129.2,41.8z"/>
		<path class="st1" d="M169.2,30.2h12.9v57.1h-12.9V30.2z"/>
	</g>
	<g>
		<path class="st1" d="M252.8,13.8c-0.9-0.5-1.9-0.7-2.8-0.7c-1.1,0-2.2,0.3-3.1,0.8c-0.9,0.6-1.7,1.3-2.2,2.3c-0.5,1-0.8,2-0.8,3.2
			c0,1.2,0.3,2.3,0.8,3.2c0.5,1,1.3,1.8,2.2,2.3c0.9,0.6,2,0.9,3.1,0.9c0.9,0,1.8-0.2,2.8-0.7s1.8-1,2.5-1.8l2.7,2.9
			c-1.1,1.1-2.4,2-3.8,2.7s-2.9,1-4.4,1c-2,0-3.8-0.5-5.4-1.4c-1.6-0.9-2.9-2.2-3.8-3.8c-0.9-1.6-1.4-3.4-1.4-5.4
			c0-2,0.5-3.7,1.4-5.3c0.9-1.6,2.2-2.8,3.9-3.7c1.7-0.9,3.5-1.4,5.5-1.4c1.5,0,2.9,0.3,4.4,0.9c1.4,0.6,2.7,1.4,3.7,2.5l-2.7,3.3
			C254.5,14.9,253.7,14.2,252.8,13.8z"/>
		<path class="st1" d="M272.6,16.1c1.3,1.5,2,3.5,2,6.1c0,0.5,0,0.8,0,1.1h-11.2c0.3,1,0.7,1.8,1.5,2.3c0.7,0.6,1.6,0.8,2.6,0.8
			c0.7,0,1.4-0.1,2.1-0.4c0.7-0.3,1.3-0.7,1.8-1.2l2.4,2.4c-0.8,0.9-1.8,1.6-2.9,2c-1.1,0.5-2.4,0.7-3.8,0.7c-1.6,0-3.1-0.3-4.3-1
			c-1.2-0.7-2.2-1.6-2.8-2.8c-0.7-1.2-1-2.6-1-4.2c0-1.6,0.3-3,1-4.2c0.7-1.2,1.6-2.1,2.8-2.8c1.2-0.7,2.6-1,4.2-1
			C269.4,13.9,271.3,14.6,272.6,16.1z M270.4,20.6c0-1-0.4-1.8-1-2.5c-0.6-0.6-1.4-0.9-2.5-0.9c-1,0-1.8,0.3-2.4,0.9
			c-0.6,0.6-1.1,1.4-1.2,2.5H270.4z"/>
		<path class="st1" d="M291.6,15.5c1,1.1,1.6,2.5,1.6,4.4v9.8h-4.5v-8.5c0-1-0.3-1.8-0.8-2.3c-0.6-0.6-1.3-0.9-2.2-0.9
			c-1.1,0-2,0.4-2.6,1.1c-0.6,0.7-1,1.7-1,2.9v7.7h-4.5V14.1h4.5v2.7c1.1-1.9,2.9-2.9,5.4-2.9C289.1,13.9,290.5,14.4,291.6,15.5z"/>
		<path class="st1" d="M306.6,28.8c-0.6,0.3-1.2,0.6-1.9,0.8c-0.7,0.2-1.4,0.3-2.1,0.3c-1.5,0-2.6-0.4-3.5-1.2
			c-0.9-0.8-1.4-2-1.4-3.6v-7.2h-2.2v-3.1h2.2v-4.3h4.4v4.3h4.2v3.1h-4.2v6.4c0,1.2,0.5,1.8,1.4,1.8c0.7,0,1.4-0.2,2.2-0.6
			L306.6,28.8z"/>
		<path class="st1" d="M315.9,14.7c0.9-0.5,1.9-0.8,3-0.8v4.2c-0.2,0-0.4,0-0.7,0c-1.4,0-2.5,0.4-3.3,1.1c-0.8,0.7-1.2,1.7-1.2,3
			v7.5h-4.5V14.1h4.5v2.8C314.3,15.9,315.1,15.2,315.9,14.7z"/>
		<path class="st1" d="M332.8,14.9c1.3,0.7,2.2,1.6,2.9,2.8c0.7,1.2,1,2.6,1,4.2c0,1.6-0.3,3-1,4.2c-0.7,1.2-1.7,2.1-2.9,2.8
			c-1.3,0.7-2.7,1-4.4,1c-1.7,0-3.1-0.3-4.4-1c-1.3-0.7-2.2-1.6-2.9-2.8c-0.7-1.2-1-2.6-1-4.2c0-1.6,0.3-3,1-4.2
			c0.7-1.2,1.7-2.1,2.9-2.8c1.3-0.7,2.7-1,4.4-1C330.1,13.9,331.6,14.2,332.8,14.9z M325.6,18.8c-0.7,0.8-1.1,1.8-1.1,3.1
			c0,1.3,0.4,2.3,1.1,3.1c0.7,0.8,1.7,1.2,2.8,1.2c1.1,0,2.1-0.4,2.8-1.2c0.7-0.8,1.1-1.8,1.1-3.1c0-1.3-0.4-2.3-1.1-3.1
			s-1.7-1.2-2.8-1.2C327.3,17.6,326.4,18,325.6,18.8z"/>
		<path class="st1" d="M362,8.1v21.5h-4.4v-2.3c-0.6,0.8-1.3,1.4-2.1,1.8s-1.8,0.6-2.8,0.6c-1.5,0-2.8-0.3-3.9-1
			c-1.1-0.7-2-1.6-2.6-2.8c-0.6-1.2-0.9-2.6-0.9-4.2c0-1.6,0.3-3,0.9-4.2c0.6-1.2,1.5-2.1,2.6-2.8c1.1-0.7,2.4-1,3.8-1
			c2.2,0,3.9,0.8,5.1,2.5V8.1H362z M356.5,25c0.7-0.8,1.1-1.8,1.1-3.1c0-1.3-0.4-2.3-1.1-3.1c-0.7-0.8-1.7-1.2-2.8-1.2
			c-1.2,0-2.1,0.4-2.8,1.2c-0.7,0.8-1.1,1.8-1.1,3.1c0,1.3,0.4,2.3,1.1,3.1c0.7,0.8,1.7,1.2,2.8,1.2C354.8,26.2,355.7,25.8,356.5,25
			z"/>
		<path class="st1" d="M378.9,16.1c1.3,1.5,2,3.5,2,6.1c0,0.5,0,0.8,0,1.1h-11.2c0.3,1,0.7,1.8,1.5,2.3c0.7,0.6,1.6,0.8,2.6,0.8
			c0.7,0,1.4-0.1,2.1-0.4c0.7-0.3,1.3-0.7,1.8-1.2l2.4,2.4c-0.8,0.9-1.8,1.6-2.9,2c-1.1,0.5-2.4,0.7-3.8,0.7c-1.6,0-3.1-0.3-4.3-1
			c-1.2-0.7-2.2-1.6-2.8-2.8c-0.7-1.2-1-2.6-1-4.2c0-1.6,0.3-3,1-4.2c0.7-1.2,1.6-2.1,2.8-2.8c1.2-0.7,2.6-1,4.2-1
			C375.7,13.9,377.6,14.6,378.9,16.1z M376.6,20.6c0-1-0.4-1.8-1-2.5c-0.6-0.6-1.4-0.9-2.5-0.9c-1,0-1.8,0.3-2.4,0.9
			c-0.6,0.6-1.1,1.4-1.2,2.5H376.6z"/>
		<path class="st1" d="M250.6,48.3c-1.2-0.4-2.2-0.6-3-0.6c-0.8,0-1.4,0.1-1.9,0.4c-0.5,0.3-0.7,0.7-0.7,1.3c0,0.7,0.3,1.3,1,1.6
			c0.7,0.4,1.7,0.8,3.1,1.2s2.5,0.8,3.4,1.2c0.9,0.4,1.7,1,2.3,1.8c0.6,0.8,1,1.9,1,3.2c0,1.3-0.3,2.4-1,3.4
			c-0.7,0.9-1.6,1.7-2.8,2.1c-1.2,0.5-2.6,0.7-4.1,0.7c-1.6,0-3.3-0.3-4.8-0.9s-3-1.4-4.1-2.4l1.8-3.7c1,0.9,2.2,1.7,3.5,2.2
			c1.3,0.6,2.6,0.8,3.7,0.8c0.9,0,1.7-0.2,2.2-0.5c0.5-0.3,0.8-0.9,0.8-1.5c0-0.5-0.2-1-0.5-1.3c-0.4-0.3-0.8-0.6-1.4-0.8
			s-1.3-0.5-2.3-0.7c-1.4-0.4-2.5-0.8-3.4-1.2c-0.9-0.4-1.6-1-2.3-1.8c-0.6-0.8-1-1.8-1-3.2c0-1.2,0.3-2.3,1-3.2
			c0.7-0.9,1.6-1.6,2.8-2.1c1.2-0.5,2.6-0.7,4.1-0.7c1.4,0,2.8,0.2,4.1,0.6c1.4,0.4,2.6,0.9,3.6,1.6l-1.8,3.8
			C252.8,49.2,251.7,48.7,250.6,48.3z"/>
		<path class="st1" d="M271.4,50.9c1.3,1.5,2,3.5,2,6.1c0,0.5,0,0.8,0,1.1h-11.2c0.3,1,0.7,1.8,1.5,2.3c0.7,0.6,1.6,0.8,2.6,0.8
			c0.7,0,1.4-0.1,2.1-0.4c0.7-0.3,1.3-0.7,1.8-1.2l2.4,2.4c-0.8,0.9-1.8,1.6-2.9,2c-1.1,0.5-2.4,0.7-3.8,0.7c-1.6,0-3.1-0.3-4.3-1
			c-1.2-0.7-2.2-1.6-2.8-2.8c-0.7-1.2-1-2.6-1-4.2c0-1.6,0.3-3,1-4.2c0.7-1.2,1.6-2.1,2.8-2.8c1.2-0.7,2.6-1,4.2-1
			C268.1,48.7,270,49.5,271.4,50.9z M269.1,55.4c0-1-0.4-1.8-1-2.5c-0.6-0.6-1.4-0.9-2.5-0.9c-1,0-1.8,0.3-2.4,0.9
			c-0.6,0.6-1.1,1.4-1.2,2.5H269.1z"/>
		<path class="st1" d="M282.8,49.5c0.9-0.5,1.9-0.8,3-0.8v4.2c-0.2,0-0.4,0-0.7,0c-1.4,0-2.5,0.4-3.3,1.1c-0.8,0.7-1.2,1.7-1.2,3
			v7.5h-4.5V48.9h4.5v2.8C281.3,50.7,282,50,282.8,49.5z"/>
		<path class="st1" d="M286.8,48.9l4.6,0l3.7,11.4l3.7-11.4h4.4l-5.9,15.6h-4.6L286.8,48.9z"/>
		<path class="st1" d="M309.1,42.6c0.5,0.5,0.7,1.1,0.7,1.8c0,0.7-0.2,1.3-0.7,1.8c-0.5,0.5-1,0.7-1.8,0.7c-0.7,0-1.3-0.2-1.7-0.7
			c-0.5-0.5-0.7-1.1-0.7-1.8c0-0.7,0.2-1.3,0.7-1.8c0.5-0.5,1-0.7,1.7-0.7C308.1,42,308.7,42.2,309.1,42.6z M305.2,48.9h4.5v15.6
			h-4.5V48.9z"/>
		<path class="st1" d="M320.9,52.5c-1.1,0-2,0.4-2.7,1.1c-0.7,0.8-1.1,1.8-1.1,3c0,1.3,0.3,2.3,1,3.1c0.7,0.8,1.6,1.2,2.7,1.2
			c1.6,0,2.8-0.6,3.6-1.8l3.1,2.1c-0.7,1.1-1.6,2-2.8,2.6c-1.2,0.6-2.6,0.9-4.2,0.9c-1.6,0-3-0.3-4.2-1c-1.2-0.7-2.1-1.6-2.8-2.8
			c-0.7-1.2-1-2.6-1-4.2c0-1.6,0.3-3,1-4.2c0.7-1.2,1.6-2.1,2.8-2.8c1.2-0.7,2.6-1,4.2-1c1.5,0,2.8,0.3,4,0.9s2.1,1.4,2.8,2.4
			l-3,2.2C323.4,53.1,322.3,52.5,320.9,52.5z"/>
		<path class="st1" d="M334.2,42.6c0.5,0.5,0.7,1.1,0.7,1.8c0,0.7-0.2,1.3-0.7,1.8c-0.5,0.5-1,0.7-1.8,0.7c-0.7,0-1.3-0.2-1.7-0.7
			c-0.5-0.5-0.7-1.1-0.7-1.8c0-0.7,0.2-1.3,0.7-1.8c0.5-0.5,1-0.7,1.7-0.7C333.2,42,333.8,42.2,334.2,42.6z M330.3,48.9h4.5v15.6
			h-4.5V48.9z"/>
		<path class="st1" d="M350.4,49.7c1.3,0.7,2.2,1.6,2.9,2.8c0.7,1.2,1,2.6,1,4.2c0,1.6-0.3,3-1,4.2c-0.7,1.2-1.7,2.1-2.9,2.8
			c-1.3,0.7-2.7,1-4.4,1c-1.7,0-3.1-0.3-4.4-1c-1.3-0.7-2.2-1.6-2.9-2.8c-0.7-1.2-1-2.6-1-4.2c0-1.6,0.3-3,1-4.2
			c0.7-1.2,1.7-2.1,2.9-2.8c1.3-0.7,2.7-1,4.4-1C347.7,48.7,349.2,49.1,350.4,49.7z M343.2,53.6c-0.7,0.8-1.1,1.8-1.1,3.1
			c0,1.3,0.4,2.3,1.1,3.1c0.7,0.8,1.7,1.2,2.8,1.2c1.1,0,2.1-0.4,2.8-1.2c0.7-0.8,1.1-1.8,1.1-3.1c0-1.3-0.4-2.3-1.1-3.1
			s-1.7-1.2-2.8-1.2C344.9,52.5,344,52.9,343.2,53.6z"/>
		<path class="st1" d="M364.7,52.4c-0.8-0.3-1.6-0.4-2.2-0.4c-0.5,0-1,0.1-1.3,0.3c-0.3,0.2-0.5,0.5-0.5,0.9c0,0.4,0.2,0.8,0.7,1
			s1.2,0.5,2.2,0.8c1.1,0.3,2,0.7,2.7,1c0.7,0.3,1.3,0.8,1.9,1.4c0.5,0.6,0.8,1.5,0.8,2.5c0,1.5-0.6,2.8-1.8,3.6
			c-1.2,0.9-2.7,1.3-4.6,1.3c-1.3,0-2.5-0.2-3.7-0.6c-1.2-0.4-2.2-0.9-3.1-1.6l1.5-3c0.8,0.6,1.7,1.1,2.7,1.4c1,0.3,1.9,0.5,2.8,0.5
			c0.6,0,1.1-0.1,1.4-0.3c0.4-0.2,0.5-0.5,0.5-0.9c0-0.4-0.2-0.8-0.7-1s-1.2-0.5-2.2-0.8c-1.1-0.3-2-0.6-2.7-0.9s-1.3-0.8-1.8-1.4
			c-0.5-0.6-0.8-1.4-0.8-2.5c0-1.5,0.6-2.7,1.7-3.6c1.2-0.9,2.6-1.3,4.4-1.3c1.1,0,2.1,0.2,3.2,0.5c1.1,0.3,2,0.7,2.9,1.3l-1.5,3
			C366.4,53,365.5,52.6,364.7,52.4z"/>
		<path class="st1" d="M392.1,49.7c1.1,0.7,2,1.6,2.6,2.8c0.6,1.2,0.9,2.6,0.9,4.2c0,1.6-0.3,2.9-0.9,4.1c-0.6,1.2-1.4,2.1-2.5,2.8
			c-1.1,0.7-2.4,1-3.8,1c-1.1,0-2-0.2-2.9-0.6s-1.6-1-2.1-1.8v7.9h-4.5V48.9h4.5v2.3c0.6-0.8,1.3-1.4,2.1-1.8
			c0.8-0.4,1.8-0.6,2.8-0.6C389.7,48.7,391,49.1,392.1,49.7z M390,59.8c0.7-0.8,1.1-1.8,1.1-3.1c0-1.3-0.4-2.3-1.1-3.1
			c-0.7-0.8-1.6-1.2-2.8-1.2c-1.1,0-2.1,0.4-2.8,1.2c-0.7,0.8-1.1,1.8-1.1,3.1c0,1.3,0.4,2.3,1.1,3.1c0.7,0.8,1.7,1.2,2.8,1.2
			C388.3,61,389.3,60.6,390,59.8z"/>
		<path class="st1" d="M407.6,64.5v-1.8c-0.5,0.7-1.2,1.2-2,1.5c-0.8,0.3-1.8,0.5-2.9,0.5c-1.6,0-3-0.4-3.9-1.3s-1.5-2.1-1.5-3.5
			c0-1.5,0.5-2.6,1.6-3.4s2.5-1.2,4.4-1.3h4.3v-0.3c0-0.8-0.3-1.5-0.8-1.9c-0.6-0.5-1.4-0.7-2.4-0.7c-1.5,0-3,0.5-4.6,1.4l-1.4-3.1
			c1.2-0.6,2.4-1.1,3.5-1.4c1.1-0.3,2.3-0.4,3.6-0.4c2.1,0,3.7,0.5,4.9,1.5c1.2,1,1.7,2.4,1.8,4.1l0,10.2H407.6z M406.3,60.8
			c0.7-0.4,1.1-1,1.2-1.7v-1.4H404c-0.9,0-1.5,0.1-1.9,0.4c-0.4,0.3-0.6,0.7-0.6,1.4c0,0.6,0.2,1.1,0.7,1.4c0.4,0.4,1,0.5,1.8,0.5
			C404.9,61.5,405.7,61.3,406.3,60.8z"/>
		<path class="st1" d="M422.4,49.5c0.9-0.5,1.9-0.8,3-0.8v4.2c-0.2,0-0.4,0-0.7,0c-1.4,0-2.5,0.4-3.3,1.1c-0.8,0.7-1.2,1.7-1.2,3
			v7.5h-4.5V48.9h4.5v2.8C420.8,50.7,421.5,50,422.4,49.5z"/>
		<path class="st1" d="M436.5,64.5v-1.8c-0.5,0.7-1.2,1.2-2,1.5c-0.8,0.3-1.8,0.5-2.9,0.5c-1.6,0-3-0.4-3.9-1.3s-1.5-2.1-1.5-3.5
			c0-1.5,0.5-2.6,1.6-3.4s2.5-1.2,4.4-1.3h4.3v-0.3c0-0.8-0.3-1.5-0.8-1.9c-0.6-0.5-1.4-0.7-2.4-0.7c-1.5,0-3,0.5-4.6,1.4l-1.4-3.1
			c1.2-0.6,2.4-1.1,3.5-1.4c1.1-0.3,2.3-0.4,3.6-0.4c2.1,0,3.7,0.5,4.9,1.5c1.2,1,1.7,2.4,1.8,4.1l0,10.2H436.5z M435.2,60.8
			c0.7-0.4,1.1-1,1.2-1.7v-1.4h-3.5c-0.9,0-1.5,0.1-1.9,0.4c-0.4,0.3-0.6,0.7-0.6,1.4c0,0.6,0.2,1.1,0.7,1.4c0.4,0.4,1,0.5,1.8,0.5
			C433.7,61.5,434.5,61.3,435.2,60.8z"/>
		<path class="st1" d="M240.5,79h4.6v20.3h-4.6V79z"/>
		<path class="st1" d="M263.5,85.2c1,1.1,1.6,2.5,1.6,4.4v9.8h-4.5v-8.5c0-1-0.3-1.8-0.8-2.3c-0.6-0.6-1.3-0.9-2.2-0.9
			c-1.1,0-2,0.4-2.6,1.1c-0.6,0.7-1,1.7-1,2.9v7.7h-4.5V83.7h4.5v2.7c1.1-1.9,2.9-2.9,5.4-2.9C261.1,83.5,262.5,84.1,263.5,85.2z"/>
		<path class="st1" d="M293.7,85.2c1,1.1,1.5,2.5,1.5,4.4v9.8h-4.4v-8.5c0-1-0.3-1.8-0.8-2.4c-0.5-0.6-1.3-0.8-2.2-0.8
			c-1.1,0-1.9,0.4-2.5,1.1c-0.6,0.7-0.9,1.7-0.9,2.8v7.7h-4.4v-8.5c0-1-0.3-1.8-0.8-2.3s-1.3-0.9-2.2-0.9c-1.1,0-1.9,0.4-2.5,1.1
			c-0.6,0.7-0.9,1.7-0.9,2.8v7.7H269V83.7h4.5v2.7c1.1-1.9,2.8-2.8,5.3-2.9c1.3,0,2.4,0.3,3.3,0.9c0.9,0.6,1.6,1.5,1.9,2.7
			c0.5-1.2,1.2-2.1,2.2-2.7c1-0.6,2.1-0.9,3.4-0.9C291.3,83.5,292.7,84.1,293.7,85.2z"/>
		<path class="st1" d="M303.1,77.5c0.5,0.5,0.7,1.1,0.7,1.8c0,0.7-0.2,1.3-0.7,1.8c-0.5,0.5-1,0.7-1.8,0.7c-0.7,0-1.3-0.2-1.7-0.7
			c-0.5-0.5-0.7-1.1-0.7-1.8c0-0.7,0.2-1.3,0.7-1.8c0.5-0.5,1-0.7,1.7-0.7C302,76.8,302.6,77,303.1,77.5z M299.1,83.7h4.5v15.6h-4.5
			V83.7z"/>
		<path class="st1" d="M322.5,83.7v14.2c0,1.5-0.3,2.8-1,3.8c-0.7,1.1-1.7,1.9-2.9,2.5s-2.7,0.9-4.4,0.9c-1.3,0-2.5-0.2-3.6-0.6
			c-1.2-0.4-2.2-0.9-3.1-1.5l1.7-3.1c1.5,1,3.1,1.6,4.8,1.6c1.3,0,2.3-0.3,3-0.9c0.8-0.6,1.1-1.5,1.1-2.5v-1.8
			c-0.5,0.7-1.2,1.3-2,1.7c-0.8,0.4-1.7,0.6-2.7,0.6c-1.3,0-2.5-0.3-3.6-0.9c-1-0.6-1.8-1.5-2.4-2.7c-0.6-1.1-0.9-2.5-0.9-3.9
			c0-1.5,0.3-2.8,0.9-3.9c0.6-1.1,1.4-2,2.4-2.6s2.2-0.9,3.6-0.9c1,0,1.9,0.2,2.7,0.6c0.8,0.4,1.5,1,2,1.7v-2.1H322.5z M317.1,94
			c0.7-0.7,1-1.7,1-2.9c0-1.2-0.3-2.2-1-2.9c-0.7-0.8-1.6-1.1-2.6-1.1s-2,0.4-2.6,1.1c-0.7,0.8-1,1.7-1,2.9c0,1.2,0.4,2.2,1,2.9
			c0.7,0.7,1.6,1.1,2.7,1.1C315.5,95.1,316.4,94.8,317.1,94z"/>
		<path class="st1" d="M333.2,84.3c0.9-0.5,1.9-0.8,3-0.8v4.2c-0.2,0-0.4,0-0.7,0c-1.4,0-2.5,0.4-3.3,1.1c-0.8,0.7-1.2,1.7-1.2,3
			v7.5h-4.5V83.7h4.5v2.8C331.6,85.6,332.3,84.8,333.2,84.3z"/>
		<path class="st1" d="M347.2,99.3v-1.8c-0.5,0.7-1.2,1.2-2,1.5c-0.8,0.3-1.8,0.5-2.9,0.5c-1.6,0-3-0.4-3.9-1.3s-1.5-2.1-1.5-3.5
			c0-1.5,0.5-2.6,1.6-3.4s2.5-1.2,4.4-1.3h4.3v-0.3c0-0.8-0.3-1.5-0.8-1.9c-0.6-0.5-1.4-0.7-2.4-0.7c-1.5,0-3,0.5-4.6,1.4l-1.4-3.1
			c1.2-0.6,2.4-1.1,3.5-1.4c1.1-0.3,2.3-0.4,3.6-0.4c2.1,0,3.7,0.5,4.9,1.5c1.2,1,1.7,2.4,1.8,4.1l0,10.2H347.2z M346,95.7
			c0.7-0.4,1.1-1,1.2-1.7v-1.4h-3.5c-0.9,0-1.5,0.1-1.9,0.4c-0.4,0.3-0.6,0.7-0.6,1.4c0,0.6,0.2,1.1,0.7,1.4c0.4,0.4,1,0.5,1.8,0.5
			C344.5,96.3,345.3,96.1,346,95.7z"/>
		<path class="st1" d="M369.5,85.2c1,1.1,1.6,2.5,1.6,4.4v9.8h-4.5v-8.5c0-1-0.3-1.8-0.8-2.3c-0.6-0.6-1.3-0.9-2.2-0.9
			c-1.1,0-2,0.4-2.6,1.1c-0.6,0.7-1,1.7-1,2.9v7.7h-4.5V83.7h4.5v2.7c1.1-1.9,2.9-2.9,5.4-2.9C367.1,83.5,368.5,84.1,369.5,85.2z"/>
		<path class="st1" d="M384.6,98.5c-0.6,0.3-1.2,0.6-1.9,0.8c-0.7,0.2-1.4,0.3-2.1,0.3c-1.5,0-2.6-0.4-3.5-1.2
			c-0.9-0.8-1.4-2-1.4-3.6v-7.2h-2.2v-3.1h2.2v-4.3h4.4v4.3h4.2v3.1h-4.2V94c0,1.2,0.5,1.8,1.4,1.8c0.7,0,1.4-0.2,2.2-0.6
			L384.6,98.5z"/>
		<path class="st1" d="M399.6,85.8c1.3,1.5,2,3.5,2,6.1c0,0.5,0,0.8,0,1.1h-11.2c0.3,1,0.7,1.8,1.5,2.3c0.7,0.6,1.6,0.8,2.6,0.8
			c0.7,0,1.4-0.1,2.1-0.4c0.7-0.3,1.3-0.7,1.8-1.2l2.4,2.4c-0.8,0.9-1.8,1.6-2.9,2c-1.1,0.5-2.4,0.7-3.8,0.7c-1.6,0-3.1-0.3-4.3-1
			c-1.2-0.7-2.2-1.6-2.8-2.8c-0.7-1.2-1-2.6-1-4.2c0-1.6,0.3-3,1-4.2c0.7-1.2,1.6-2.1,2.8-2.8c1.2-0.7,2.6-1,4.2-1
			C396.4,83.6,398.3,84.3,399.6,85.8z M397.4,90.3c0-1-0.4-1.8-1-2.5c-0.6-0.6-1.4-0.9-2.5-0.9c-1,0-1.8,0.3-2.4,0.9
			c-0.6,0.6-1.1,1.4-1.2,2.5H397.4z"/>
		<path class="st1" d="M411.8,87.2c-0.8-0.3-1.6-0.4-2.2-0.4c-0.5,0-1,0.1-1.3,0.3c-0.3,0.2-0.5,0.5-0.5,0.9c0,0.4,0.2,0.8,0.7,1
			s1.2,0.5,2.2,0.8c1.1,0.3,2,0.7,2.7,1c0.7,0.3,1.3,0.8,1.9,1.4c0.5,0.6,0.8,1.5,0.8,2.5c0,1.5-0.6,2.8-1.8,3.6
			c-1.2,0.9-2.7,1.3-4.6,1.3c-1.3,0-2.5-0.2-3.7-0.6c-1.2-0.4-2.2-0.9-3.1-1.6l1.5-3c0.8,0.6,1.7,1.1,2.7,1.4c1,0.3,1.9,0.5,2.8,0.5
			c0.6,0,1.1-0.1,1.4-0.3c0.4-0.2,0.5-0.5,0.5-0.9c0-0.4-0.2-0.8-0.7-1s-1.2-0.5-2.2-0.8c-1.1-0.3-2-0.6-2.7-0.9s-1.3-0.8-1.8-1.4
			c-0.5-0.6-0.8-1.4-0.8-2.5c0-1.5,0.6-2.7,1.7-3.6c1.2-0.9,2.6-1.3,4.4-1.3c1.1,0,2.1,0.2,3.2,0.5c1.1,0.3,2,0.7,2.9,1.3l-1.5,3
			C413.5,87.8,412.7,87.5,411.8,87.2z"/>
	</g>
</g>
</svg>
